<svg width="300" height="300" xmlns="http://www.w3.org/2000/svg" version="1.1">
<circle cx="150" cy="150" r="100" stroke="black" fill="yellow"/>
<line x1="150.000000" y1="50.000000" x2="150.000000" y2="70.000000" stroke="black"/>
<line x1="160.447567" y1="50.547256" x2="159.402810" y2="60.492530" stroke="black"/>
<line x1="170.780783" y1="52.183033" x2="168.702705" y2="61.964730" stroke="black"/>
<line x1="180.886552" y1="54.889428" x2="177.797897" y2="64.400485" stroke="black"/>
<line x1="190.654264" y1="58.636819" x2="186.588838" y2="67.773137" stroke="black"/>
<line x1="199.977010" y1="63.384191" x2="189.981608" y2="80.707352" stroke="black"/>
<line x1="208.752753" y1="69.079582" x2="202.877477" y2="77.171624" stroke="black"/>
<line x1="216.885439" y1="75.660656" x2="210.196895" y2="83.094591" stroke="black"/>
<line x1="224.286057" y1="83.055383" x2="216.857452" y2="89.749845" stroke="black"/>
<line x1="230.873606" y1="91.182827" x2="222.786245" y2="97.064544" stroke="black"/>
<line x1="236.575984" y1="99.954031" x2="219.260787" y2="109.963225" stroke="black"/>
<line x1="241.330778" y1="109.272994" x2="232.197700" y2="113.345695" stroke="black"/>
<line x1="245.085946" y1="119.037719" x2="235.577351" y2="122.133947" stroke="black"/>
<line x1="247.800388" y1="129.141329" x2="238.020349" y2="131.227196" stroke="black"/>
<line x1="249.444393" y1="139.473240" x2="239.499954" y2="140.525916" stroke="black"/>
<line x1="249.999968" y1="149.920367" x2="229.999975" y2="149.936294" stroke="black"/>
<line x1="249.461032" y1="160.368366" x2="239.514929" y2="159.331530" stroke="black"/>
<line x1="247.833484" y1="170.702882" x2="238.050136" y2="168.632594" stroke="black"/>
<line x1="245.135138" y1="180.810803" x2="235.621624" y2="177.729723" stroke="black"/>
<line x1="241.395526" y1="190.581496" x2="232.255973" y2="186.523346" stroke="black"/>
<line x1="236.655580" y1="199.908020" x2="219.324464" y2="189.926416" stroke="black"/>
<line x1="230.967179" y1="208.688295" x2="222.870461" y2="202.819465" stroke="black"/>
<line x1="224.392583" y1="216.826220" x2="216.953324" y2="210.143598" stroke="black"/>
<line x1="217.003751" y1="224.232724" x2="210.303376" y2="216.809452" stroke="black"/>
<line x1="208.881556" y1="230.826743" x2="202.993401" y2="222.744068" stroke="black"/>
<line x1="200.114896" y1="236.536104" x2="190.091917" y2="219.228883" stroke="black"/>
<line x1="190.799722" y1="241.298317" x2="186.719750" y2="232.168485" stroke="black"/>
<line x1="181.037991" y1="245.061260" x2="177.934192" y2="235.555134" stroke="black"/>
<line x1="170.936545" y1="247.783746" x2="168.842891" y2="238.005372" stroke="black"/>
<line x1="160.605947" y1="249.435979" x2="159.545352" y2="239.492381" stroke="black"/>
<line x1="150.159265" y1="249.999873" x2="150.127412" y2="229.999899" stroke="black"/>
<line x1="139.710840" y1="249.469258" x2="140.739756" y2="239.522332" stroke="black"/>
<line x1="129.375032" y1="247.849940" x2="131.437528" y2="238.064946" stroke="black"/>
<line x1="119.264965" y1="245.159643" x2="122.338469" y2="235.643679" stroke="black"/>
<line x1="109.491297" y1="241.427813" x2="113.542168" y2="232.285032" stroke="black"/>
<line x1="100.161002" y1="236.695296" x2="110.128802" y2="219.356236" stroke="black"/>
<line x1="91.376200" y1="231.013888" x2="97.238580" y2="222.912499" stroke="black"/>
<line x1="83.233042" y1="224.445775" x2="89.909738" y2="217.001197" stroke="black"/>
<line x1="75.820656" y1="217.062844" x2="83.238591" y2="210.356559" stroke="black"/>
<line x1="69.220172" y1="208.945902" x2="77.298155" y2="203.051312" stroke="black"/>
<line x1="63.503832" y1="200.183791" x2="80.803065" y2="190.147033" stroke="black"/>
<line x1="58.734202" y1="190.872413" x2="67.860782" y2="186.785171" stroke="black"/>
<line x1="54.963487" y1="181.113681" x2="64.467138" y2="178.002313" stroke="black"/>
<line x1="52.232957" y1="171.014407" x2="62.009661" y2="168.912966" stroke="black"/>
<line x1="50.572498" y1="160.685127" x2="60.515249" y2="159.616614" stroke="black"/>
<line x1="50.000285" y1="150.238898" x2="70.000228" y2="150.191118" stroke="black"/>
<line x1="50.522580" y1="139.790054" x2="60.470322" y2="140.811048" stroke="black"/>
<line x1="52.133667" y1="129.452959" x2="61.920301" y2="131.507663" stroke="black"/>
<line x1="54.815912" y1="119.340753" x2="64.334321" y2="122.406678" stroke="black"/>
<line x1="58.539958" y1="109.564117" x2="67.685962" y2="113.607705" stroke="black"/>
<line x1="63.265044" y1="100.230056" x2="80.612035" y2="110.184044" stroke="black"/>
<line x1="68.939454" y1="91.440732" x2="77.045508" y2="97.296659" stroke="black"/>
<line x1="75.501081" y1="83.292347" x2="82.950973" y2="89.963112" stroke="black"/>
<line x1="82.878107" y1="75.874084" x2="89.590296" y2="83.286675" stroke="black"/>
<line x1="90.989790" y1="69.267138" x2="96.890811" y2="77.340424" stroke="black"/>
<line x1="99.747346" y1="63.543822" x2="109.797877" y2="80.835057" stroke="black"/>
<line x1="109.054923" y1="58.766779" x2="113.149431" y2="67.890101" stroke="black"/>
<line x1="118.810649" y1="54.988294" x2="121.929584" y2="64.489464" stroke="black"/>
<line x1="128.907746" y1="52.249722" x2="131.016971" y2="62.024750" stroke="black"/>
<line x1="139.235699" y1="50.581039" x2="140.312130" y2="60.522935" stroke="black"/>
<line x1="150" y1="150" x2="185.630133" y2="124.977016" stroke="black"/>
<line x1="150" y1="150" x2="184.086003" y2="105.396394" stroke="black"/>
<line x1="150" y1="150" x2="208.700091" y2="164.492018" stroke="black"/>
<line x1="150" y1="150" x2="185.630133" y2="124.977016" stroke="black"/>
<line x1="150" y1="150" x2="184.086003" y2="105.396394" stroke="black"/>
<line x1="150" y1="150" x2="208.700091" y2="164.492018" stroke="black"/>
<line x1="150" y1="150" x2="185.630133" y2="124.977016" stroke="black"/>
<line x1="150" y1="150" x2="184.086003" y2="105.396394" stroke="black"/>
<line x1="150" y1="150" x2="208.700091" y2="164.492018" stroke="black"/>
</svg>